<svg xmlns="http://www.w3.org/2000/svg" xmlns:xlink="http://www.w3.org/1999/xlink" width="500" zoomAndPan="magnify" viewBox="0 0 375 374.999991" height="500" preserveAspectRatio="xMidYMid meet" version="1.0"><defs><filter x="0%" y="0%" width="100%" height="100%" id="436991d793"><feColorMatrix values="0 0 0 0 1 0 0 0 0 1 0 0 0 0 1 0 0 0 1 0" color-interpolation-filters="sRGB"/></filter><mask id="cc39cb51b9"><g filter="url(#436991d793)"><rect x="-37.5" width="450" fill="#000000" y="-37.499999" height="449.999989" fill-opacity="0.32"/></g></mask><clipPath id="8bc069d990"><path d="M 15.171875 15.226562 L 205.296875 15.226562 L 205.296875 205.351562 L 15.171875 205.351562 Z M 15.171875 15.226562 " clip-rule="nonzero"/></clipPath><clipPath id="6c555a405c"><path d="M 110.234375 15.226562 C 57.734375 15.226562 15.171875 57.785156 15.171875 110.289062 C 15.171875 162.789062 57.734375 205.351562 110.234375 205.351562 C 162.738281 205.351562 205.296875 162.789062 205.296875 110.289062 C 205.296875 57.785156 162.738281 15.226562 110.234375 15.226562 Z M 110.234375 15.226562 " clip-rule="nonzero"/></clipPath><clipPath id="ec2ccfbbc2"><rect x="0" width="215" y="0" height="221"/></clipPath><mask id="87723a0f1a"><g filter="url(#436991d793)"><rect x="-37.5" width="450" fill="#000000" y="-37.499999" height="449.999989" fill-opacity="0.36"/></g></mask><clipPath id="19af5bb8b3"><path d="M 16.058594 15.492188 L 262.234375 15.492188 L 262.234375 261.671875 L 16.058594 261.671875 Z M 16.058594 15.492188 " clip-rule="nonzero"/></clipPath><clipPath id="ed9ffdcc99"><path d="M 139.144531 15.492188 C 71.164062 15.492188 16.058594 70.601562 16.058594 138.582031 C 16.058594 206.5625 71.164062 261.671875 139.144531 261.671875 C 207.125 261.671875 262.234375 206.5625 262.234375 138.582031 C 262.234375 70.601562 207.125 15.492188 139.144531 15.492188 Z M 139.144531 15.492188 " clip-rule="nonzero"/></clipPath><clipPath id="5f37363a81"><path d="M 16.058594 15.492188 L 262.058594 15.492188 L 262.058594 261.492188 L 16.058594 261.492188 Z M 16.058594 15.492188 " clip-rule="nonzero"/></clipPath><clipPath id="57c950ab73"><path d="M 139.144531 15.492188 C 71.164062 15.492188 16.058594 70.601562 16.058594 138.582031 C 16.058594 206.558594 71.164062 261.667969 139.144531 261.667969 C 207.125 261.667969 262.234375 206.558594 262.234375 138.582031 C 262.234375 70.601562 207.125 15.492188 139.144531 15.492188 Z M 139.144531 15.492188 " clip-rule="nonzero"/></clipPath><clipPath id="d5980bbd9a"><rect x="0" width="278" y="0" height="278"/></clipPath><mask id="cc2be8779c"><g filter="url(#436991d793)"><rect x="-37.5" width="450" fill="#000000" y="-37.499999" height="449.999989" fill-opacity="0.7"/></g></mask><clipPath id="cbb2268ad7"><path d="M 12.882812 12.710938 L 269.398438 12.710938 L 269.398438 269.222656 L 12.882812 269.222656 Z M 12.882812 12.710938 " clip-rule="nonzero"/></clipPath><clipPath id="ab59aa6399"><path d="M 141.140625 12.710938 C 70.304688 12.710938 12.882812 70.132812 12.882812 140.96875 C 12.882812 211.800781 70.304688 269.222656 141.140625 269.222656 C 211.972656 269.222656 269.398438 211.800781 269.398438 140.96875 C 269.398438 70.132812 211.972656 12.710938 141.140625 12.710938 Z M 141.140625 12.710938 " clip-rule="nonzero"/></clipPath><clipPath id="2a0f191d75"><path d="M 12.882812 12.710938 L 269.382812 12.710938 L 269.382812 269.210938 L 12.882812 269.210938 Z M 12.882812 12.710938 " clip-rule="nonzero"/></clipPath><clipPath id="e5fad52a64"><path d="M 141.140625 12.710938 C 70.304688 12.710938 12.882812 70.132812 12.882812 140.964844 C 12.882812 211.800781 70.304688 269.222656 141.140625 269.222656 C 211.972656 269.222656 269.394531 211.800781 269.394531 140.964844 C 269.394531 70.132812 211.972656 12.710938 141.140625 12.710938 Z M 141.140625 12.710938 " clip-rule="nonzero"/></clipPath><clipPath id="f389ab5bec"><rect x="0" width="282" y="0" height="282"/></clipPath><mask id="0ea40b4d66"><g filter="url(#436991d793)"><rect x="-37.5" width="450" fill="#000000" y="-37.499999" height="449.999989" fill-opacity="0.4"/></g></mask><clipPath id="03c67e7956"><path d="M 12.585938 12.539062 L 167.675781 12.539062 L 167.675781 167.628906 L 12.585938 167.628906 Z M 12.585938 12.539062 " clip-rule="nonzero"/></clipPath><clipPath id="85b751a4ee"><path d="M 90.128906 12.539062 C 47.304688 12.539062 12.585938 47.257812 12.585938 90.082031 C 12.585938 132.910156 47.304688 167.628906 90.128906 167.628906 C 132.957031 167.628906 167.675781 132.910156 167.675781 90.082031 C 167.675781 47.257812 132.957031 12.539062 90.128906 12.539062 Z M 90.128906 12.539062 " clip-rule="nonzero"/></clipPath><clipPath id="40cf0c6a2a"><path d="M 12.585938 12.539062 L 167.671875 12.539062 L 167.671875 167.625 L 12.585938 167.625 Z M 12.585938 12.539062 " clip-rule="nonzero"/></clipPath><clipPath id="cb52dafcf9"><path d="M 90.128906 12.539062 C 47.304688 12.539062 12.585938 47.257812 12.585938 90.082031 C 12.585938 132.90625 47.304688 167.625 90.128906 167.625 C 132.953125 167.625 167.671875 132.90625 167.671875 90.082031 C 167.671875 47.257812 132.953125 12.539062 90.128906 12.539062 Z M 90.128906 12.539062 " clip-rule="nonzero"/></clipPath><clipPath id="53b5e97732"><rect x="0" width="180" y="0" height="174"/></clipPath><mask id="46927568f1"><g filter="url(#436991d793)"><rect x="-37.5" width="450" fill="#000000" y="-37.499999" height="449.999989" fill-opacity="0.7"/></g></mask><clipPath id="bab6082895"><path d="M 12.058594 12.503906 L 268.570312 12.503906 L 268.570312 269.015625 L 12.058594 269.015625 Z M 12.058594 12.503906 " clip-rule="nonzero"/></clipPath><clipPath id="3e61320677"><path d="M 140.3125 12.503906 C 69.480469 12.503906 12.058594 69.925781 12.058594 140.757812 C 12.058594 211.59375 69.480469 269.015625 140.3125 269.015625 C 211.148438 269.015625 268.570312 211.59375 268.570312 140.757812 C 268.570312 69.925781 211.148438 12.503906 140.3125 12.503906 Z M 140.3125 12.503906 " clip-rule="nonzero"/></clipPath><clipPath id="e2c4f76a3a"><path d="M 12.058594 12.503906 L 268.558594 12.503906 L 268.558594 269.003906 L 12.058594 269.003906 Z M 12.058594 12.503906 " clip-rule="nonzero"/></clipPath><clipPath id="4414b3bb14"><path d="M 140.3125 12.503906 C 69.480469 12.503906 12.058594 69.925781 12.058594 140.757812 C 12.058594 211.59375 69.480469 269.015625 140.3125 269.015625 C 211.144531 269.015625 268.570312 211.59375 268.570312 140.757812 C 268.570312 69.925781 211.144531 12.503906 140.3125 12.503906 Z M 140.3125 12.503906 " clip-rule="nonzero"/></clipPath><clipPath id="049b785346"><rect x="0" width="281" y="0" height="282"/></clipPath><mask id="8e4d0670da"><g filter="url(#436991d793)"><rect x="-37.5" width="450" fill="#000000" y="-37.499999" height="449.999989" fill-opacity="0.46"/></g></mask><clipPath id="cb648ab019"><path d="M 13.425781 6.371094 L 82.765625 6.371094 L 82.765625 75.710938 L 13.425781 75.710938 Z M 13.425781 6.371094 " clip-rule="nonzero"/></clipPath><clipPath id="95c66f8f7e"><path d="M 48.097656 6.371094 C 28.949219 6.371094 13.425781 21.894531 13.425781 41.042969 C 13.425781 60.1875 28.949219 75.710938 48.097656 75.710938 C 67.242188 75.710938 82.765625 60.1875 82.765625 41.042969 C 82.765625 21.894531 67.242188 6.371094 48.097656 6.371094 Z M 48.097656 6.371094 " clip-rule="nonzero"/></clipPath><clipPath id="985f70b870"><path d="M 13.425781 6.371094 L 82.425781 6.371094 L 82.425781 75.371094 L 13.425781 75.371094 Z M 13.425781 6.371094 " clip-rule="nonzero"/></clipPath><clipPath id="a4bb7a46fc"><path d="M 48.089844 6.371094 C 28.945312 6.371094 13.425781 21.890625 13.425781 41.035156 C 13.425781 60.179688 28.945312 75.699219 48.089844 75.699219 C 67.234375 75.699219 82.753906 60.179688 82.753906 41.035156 C 82.753906 21.890625 67.234375 6.371094 48.089844 6.371094 Z M 48.089844 6.371094 " clip-rule="nonzero"/></clipPath><clipPath id="756837a5d9"><rect x="0" width="96" y="0" height="89"/></clipPath><mask id="dcfb40885d"><g filter="url(#436991d793)"><rect x="-37.5" width="450" fill="#000000" y="-37.499999" height="449.999989" fill-opacity="0.7"/></g></mask><clipPath id="ab14a8a08c"><path d="M 13.992188 14.308594 L 189.367188 14.308594 L 189.367188 189.683594 L 13.992188 189.683594 Z M 13.992188 14.308594 " clip-rule="nonzero"/></clipPath><clipPath id="2c0a7c109b"><path d="M 101.679688 14.308594 C 53.253906 14.308594 13.992188 53.566406 13.992188 101.996094 C 13.992188 150.425781 53.253906 189.683594 101.679688 189.683594 C 150.109375 189.683594 189.367188 150.425781 189.367188 101.996094 C 189.367188 53.566406 150.109375 14.308594 101.679688 14.308594 Z M 101.679688 14.308594 " clip-rule="nonzero"/></clipPath><clipPath id="256bcedf84"><path d="M 13.992188 14.308594 L 189.363281 14.308594 L 189.363281 189.679688 L 13.992188 189.679688 Z M 13.992188 14.308594 " clip-rule="nonzero"/></clipPath><clipPath id="f8964f0462"><path d="M 101.679688 14.308594 C 53.253906 14.308594 13.992188 53.566406 13.992188 101.996094 C 13.992188 150.421875 53.253906 189.679688 101.679688 189.679688 C 150.105469 189.679688 189.363281 150.421875 189.363281 101.996094 C 189.363281 53.566406 150.105469 14.308594 101.679688 14.308594 Z M 101.679688 14.308594 " clip-rule="nonzero"/></clipPath><clipPath id="55f3290309"><rect x="0" width="204" y="0" height="204"/></clipPath><mask id="fe1a0b8c27"><g filter="url(#436991d793)"><rect x="-37.5" width="450" fill="#000000" y="-37.499999" height="449.999989" fill-opacity="0.46"/></g></mask><clipPath id="0dd3cf0639"><path d="M 4.140625 13.949219 L 73.476562 13.949219 L 73.476562 83.289062 L 4.140625 83.289062 Z M 4.140625 13.949219 " clip-rule="nonzero"/></clipPath><clipPath id="4c21f36535"><path d="M 38.808594 13.949219 C 19.664062 13.949219 4.140625 29.472656 4.140625 48.617188 C 4.140625 67.765625 19.664062 83.289062 38.808594 83.289062 C 57.957031 83.289062 73.476562 67.765625 73.476562 48.617188 C 73.476562 29.472656 57.957031 13.949219 38.808594 13.949219 Z M 38.808594 13.949219 " clip-rule="nonzero"/></clipPath><clipPath id="eaf333f8e6"><path d="M 4.140625 13.949219 L 73.140625 13.949219 L 73.140625 82.949219 L 4.140625 82.949219 Z M 4.140625 13.949219 " clip-rule="nonzero"/></clipPath><clipPath id="047dab5fa9"><path d="M 38.804688 13.949219 C 19.660156 13.949219 4.140625 29.46875 4.140625 48.613281 C 4.140625 67.757812 19.660156 83.277344 38.804688 83.277344 C 57.949219 83.277344 73.46875 67.757812 73.46875 48.613281 C 73.46875 29.46875 57.949219 13.949219 38.804688 13.949219 Z M 38.804688 13.949219 " clip-rule="nonzero"/></clipPath><clipPath id="7481e2ca22"><rect x="0" width="87" y="0" height="97"/></clipPath><mask id="84ed153bb2"><g filter="url(#436991d793)"><rect x="-37.5" width="450" fill="#000000" y="-37.499999" height="449.999989" fill-opacity="0.6"/></g></mask><clipPath id="c095d214a7"><path d="M 12.808594 12.691406 L 269.324219 12.691406 L 269.324219 269.207031 L 12.808594 269.207031 Z M 12.808594 12.691406 " clip-rule="nonzero"/></clipPath><clipPath id="0290886157"><path d="M 141.066406 12.691406 C 70.230469 12.691406 12.808594 70.117188 12.808594 140.949219 C 12.808594 211.785156 70.230469 269.207031 141.066406 269.207031 C 211.898438 269.207031 269.324219 211.785156 269.324219 140.949219 C 269.324219 70.117188 211.898438 12.691406 141.066406 12.691406 Z M 141.066406 12.691406 " clip-rule="nonzero"/></clipPath><clipPath id="72796a118d"><path d="M 12.808594 12.691406 L 269.308594 12.691406 L 269.308594 269.191406 L 12.808594 269.191406 Z M 12.808594 12.691406 " clip-rule="nonzero"/></clipPath><clipPath id="2ba84f3361"><path d="M 141.066406 12.691406 C 70.230469 12.691406 12.808594 70.117188 12.808594 140.949219 C 12.808594 211.78125 70.230469 269.203125 141.066406 269.203125 C 211.898438 269.203125 269.320312 211.78125 269.320312 140.949219 C 269.320312 70.117188 211.898438 12.691406 141.066406 12.691406 Z M 141.066406 12.691406 " clip-rule="nonzero"/></clipPath><clipPath id="285c2957a5"><rect x="0" width="282" y="0" height="282"/></clipPath><mask id="effcd8815c"><g filter="url(#436991d793)"><rect x="-37.5" width="450" fill="#000000" y="-37.499999" height="449.999989" fill-opacity="0.79"/></g></mask><clipPath id="298c511bf1"><path d="M 0.488281 2.074219 L 162.488281 2.074219 L 162.488281 157 L 0.488281 157 Z M 0.488281 2.074219 " clip-rule="nonzero"/></clipPath><clipPath id="6d84233f13"><rect x="0" width="164" y="0" height="158"/></clipPath><mask id="aa53fe8068"><g filter="url(#436991d793)"><rect x="-37.5" width="450" fill="#000000" y="-37.499999" height="449.999989" fill-opacity="0.66"/></g></mask><clipPath id="4759801f90"><path d="M 1 1.539062 L 104 1.539062 L 104 100 L 1 100 Z M 1 1.539062 " clip-rule="nonzero"/></clipPath><clipPath id="69f7e45a15"><rect x="0" width="105" y="0" height="101"/></clipPath><mask id="c8cc791318"><g filter="url(#436991d793)"><rect x="-37.5" width="450" fill="#000000" y="-37.499999" height="449.999989" fill-opacity="0.79"/></g></mask><clipPath id="1d62f3aad0"><path d="M 1 0.691406 L 57.1875 0.691406 L 57.1875 54.691406 L 1 54.691406 Z M 1 0.691406 " clip-rule="nonzero"/></clipPath><clipPath id="b0cd16a2dc"><rect x="0" width="58" y="0" height="55"/></clipPath></defs><g mask="url(#cc39cb51b9)"><g transform="matrix(1, 0, 0, 1, 160, 143)"><g clip-path="url(#ec2ccfbbc2)"><g clip-path="url(#8bc069d990)"><g clip-path="url(#6c555a405c)"><path fill="#ff99a6" d="M 15.171875 15.226562 L 205.296875 15.226562 L 205.296875 205.351562 L 15.171875 205.351562 Z M 15.171875 15.226562 " fill-opacity="1" fill-rule="nonzero"/><path stroke-linecap="butt" transform="matrix(0.75, 0, 0, 0.75, 15.172395, 15.224765)" fill="none" stroke-linejoin="miter" d="M 126.749314 0.00239681 C 56.74931 0.00239681 -0.000693863 56.747192 -0.000693863 126.752405 C -0.000693863 196.75241 56.74931 253.502413 126.749314 253.502413 C 196.754527 253.502413 253.499323 196.75241 253.499323 126.752405 C 253.499323 56.747192 196.754527 0.00239681 126.749314 0.00239681 Z M 126.749314 0.00239681 " stroke="#ff8080" stroke-width="8" stroke-opacity="1" stroke-miterlimit="4"/></g></g></g></g></g><g mask="url(#87723a0f1a)"><g transform="matrix(1, 0, 0, 1, 8, 95)"><g clip-path="url(#d5980bbd9a)"><g clip-path="url(#19af5bb8b3)"><g clip-path="url(#ed9ffdcc99)"><path fill="#f296a2" d="M 16.058594 15.492188 L 262.234375 15.492188 L 262.234375 261.671875 L 16.058594 261.671875 Z M 16.058594 15.492188 " fill-opacity="1" fill-rule="nonzero"/></g></g><g clip-path="url(#5f37363a81)"><g clip-path="url(#57c950ab73)"><path stroke-linecap="butt" transform="matrix(0.75, 0, 0, 0.75, 16.056751, 15.492725)" fill="none" stroke-linejoin="miter" d="M 164.117051 -0.000716219 C 73.47642 -0.000716219 0.00245711 73.478455 0.00245711 164.119086 C 0.00245711 254.754509 73.47642 328.23368 164.117051 328.23368 C 254.757682 328.23368 328.236854 254.754509 328.236854 164.119086 C 328.236854 73.478455 254.757682 -0.000716219 164.117051 -0.000716219 Z M 164.117051 -0.000716219 " stroke="#ff7f9e" stroke-width="8" stroke-opacity="1" stroke-miterlimit="4"/></g></g></g></g></g><g mask="url(#cc2be8779c)"><g transform="matrix(1, 0, 0, 1, 75, 63)"><g clip-path="url(#f389ab5bec)"><g clip-path="url(#cbb2268ad7)"><g clip-path="url(#ab59aa6399)"><path fill="#fbd0df" d="M 12.882812 12.710938 L 269.398438 12.710938 L 269.398438 269.222656 L 12.882812 269.222656 Z M 12.882812 12.710938 " fill-opacity="1" fill-rule="nonzero"/></g></g><g clip-path="url(#2a0f191d75)"><g clip-path="url(#e5fad52a64)"><path stroke-linecap="butt" transform="matrix(0.75, 0, 0, 0.75, 12.88368, 12.710752)" fill="none" stroke-linejoin="miter" d="M 171.009271 0.000247456 C 76.561348 0.000247456 -0.00115721 76.562752 -0.00115721 171.005467 C -0.00115721 265.45339 76.561348 342.015895 171.009271 342.015895 C 265.451985 342.015895 342.01449 265.45339 342.01449 171.005467 C 342.01449 76.562752 265.451985 0.000247456 171.009271 0.000247456 Z M 171.009271 0.000247456 " stroke="#f2b6cb" stroke-width="8" stroke-opacity="1" stroke-miterlimit="4"/></g></g></g></g></g><g mask="url(#0ea40b4d66)"><g transform="matrix(1, 0, 0, 1, 122, 201)"><g clip-path="url(#53b5e97732)"><g clip-path="url(#03c67e7956)"><g clip-path="url(#85b751a4ee)"><path fill="#ffc1c1" d="M 12.585938 12.539062 L 167.675781 12.539062 L 167.675781 167.628906 L 12.585938 167.628906 Z M 12.585938 12.539062 " fill-opacity="1" fill-rule="nonzero"/></g></g><g clip-path="url(#40cf0c6a2a)"><g clip-path="url(#cb52dafcf9)"><path stroke-linecap="butt" transform="matrix(0.75, 0, 0, 0.75, 12.585884, 12.539005)" fill="none" stroke-linejoin="miter" d="M 103.390703 0.0000771765 C 46.291741 0.0000771765 0.0000709304 46.291747 0.0000709304 103.390709 C 0.0000709304 160.489671 46.291741 206.781341 103.390703 206.781341 C 160.489665 206.781341 206.781335 160.489671 206.781335 103.390709 C 206.781335 46.291747 160.489665 0.0000771765 103.390703 0.0000771765 Z M 103.390703 0.0000771765 " stroke="#ffa5a5" stroke-width="8" stroke-opacity="1" stroke-miterlimit="4"/></g></g></g></g></g><g mask="url(#46927568f1)"><g transform="matrix(1, 0, 0, 1, 12, 7)"><g clip-path="url(#049b785346)"><g clip-path="url(#bab6082895)"><g clip-path="url(#3e61320677)"><path fill="#fbd0df" d="M 12.058594 12.503906 L 268.570312 12.503906 L 268.570312 269.015625 L 12.058594 269.015625 Z M 12.058594 12.503906 " fill-opacity="1" fill-rule="nonzero"/></g></g><g clip-path="url(#e2c4f76a3a)"><g clip-path="url(#4414b3bb14)"><path stroke-linecap="butt" transform="matrix(0.75, 0, 0, 0.75, 12.056751, 12.503036)" fill="none" stroke-linejoin="miter" d="M 171.007677 0.0011598 C 76.564962 0.0011598 0.00245711 76.563665 0.00245711 171.006379 C 0.00245711 265.454302 76.564962 342.016807 171.007677 342.016807 C 265.450391 342.016807 342.018105 265.454302 342.018105 171.006379 C 342.018105 76.563665 265.450391 0.0011598 171.007677 0.0011598 Z M 171.007677 0.0011598 " stroke="#f2b6cb" stroke-width="8" stroke-opacity="1" stroke-miterlimit="4"/></g></g></g></g></g><g mask="url(#8e4d0670da)"><g transform="matrix(1, 0, 0, 1, 147, 0)"><g clip-path="url(#756837a5d9)"><g clip-path="url(#cb648ab019)"><g clip-path="url(#95c66f8f7e)"><path fill="#ff99a6" d="M 13.425781 6.371094 L 82.765625 6.371094 L 82.765625 75.710938 L 13.425781 75.710938 Z M 13.425781 6.371094 " fill-opacity="1" fill-rule="nonzero"/></g></g><g clip-path="url(#985f70b870)"><g clip-path="url(#a4bb7a46fc)"><path stroke-linecap="butt" transform="matrix(0.75, 0, 0, 0.75, 13.427264, 6.372942)" fill="none" stroke-linejoin="miter" d="M 46.216776 -0.0024641 C 20.690732 -0.0024641 -0.00197749 20.690246 -0.00197749 46.216289 C -0.00197749 71.742332 20.690732 92.435042 46.216776 92.435042 C 71.742819 92.435042 92.435529 71.742332 92.435529 46.216289 C 92.435529 20.690246 71.742819 -0.0024641 46.216776 -0.0024641 Z M 46.216776 -0.0024641 " stroke="#ff8080" stroke-width="8" stroke-opacity="1" stroke-miterlimit="4"/></g></g></g></g></g><g mask="url(#dcfb40885d)"><g transform="matrix(1, 0, 0, 1, 135, 27)"><g clip-path="url(#55f3290309)"><g clip-path="url(#ab14a8a08c)"><g clip-path="url(#2c0a7c109b)"><path fill="#fbc5cc" d="M 13.992188 14.308594 L 189.367188 14.308594 L 189.367188 189.683594 L 13.992188 189.683594 Z M 13.992188 14.308594 " fill-opacity="1" fill-rule="nonzero"/></g></g><g clip-path="url(#256bcedf84)"><g clip-path="url(#f8964f0462)"><path stroke-linecap="butt" transform="matrix(0.75, 0, 0, 0.75, 13.993896, 14.309408)" fill="none" stroke-linejoin="miter" d="M 116.914396 -0.00108514 C 52.346684 -0.00108514 -0.00227799 52.342668 -0.00227799 116.915589 C -0.00227799 181.483302 52.346684 233.827055 116.914396 233.827055 C 181.482109 233.827055 233.825862 181.483302 233.825862 116.915589 C 233.825862 52.342668 181.482109 -0.00108514 116.914396 -0.00108514 Z M 116.914396 -0.00108514 " stroke="#f2abbc" stroke-width="8" stroke-opacity="1" stroke-miterlimit="4"/></g></g></g></g></g><g mask="url(#fe1a0b8c27)"><g transform="matrix(1, 0, 0, 1, 0, 170)"><g clip-path="url(#7481e2ca22)"><g clip-path="url(#0dd3cf0639)"><g clip-path="url(#4c21f36535)"><path fill="#ff99a6" d="M 4.140625 13.949219 L 73.476562 13.949219 L 73.476562 83.289062 L 4.140625 83.289062 Z M 4.140625 13.949219 " fill-opacity="1" fill-rule="nonzero"/></g></g><g clip-path="url(#eaf333f8e6)"><g clip-path="url(#047dab5fa9)"><path stroke-linecap="butt" transform="matrix(0.75, 0, 0, 0.75, 4.140571, 13.949837)" fill="none" stroke-linejoin="miter" d="M 46.218825 -0.000823854 C 20.692781 -0.000823854 0.0000715359 20.691886 0.0000715359 46.217929 C 0.0000715359 71.743973 20.692781 92.436682 46.218825 92.436682 C 71.744868 92.436682 92.437578 71.743973 92.437578 46.217929 C 92.437578 20.691886 71.744868 -0.000823854 46.218825 -0.000823854 Z M 46.218825 -0.000823854 " stroke="#ff8080" stroke-width="8" stroke-opacity="1" stroke-miterlimit="4"/></g></g></g></g></g><g mask="url(#84ed153bb2)"><g transform="matrix(1, 0, 0, 1, 26, 43)"><g clip-path="url(#285c2957a5)"><g clip-path="url(#c095d214a7)"><g clip-path="url(#0290886157)"><path fill="#ffc1d7" d="M 12.808594 12.691406 L 269.324219 12.691406 L 269.324219 269.207031 L 12.808594 269.207031 Z M 12.808594 12.691406 " fill-opacity="1" fill-rule="nonzero"/></g></g><g clip-path="url(#72796a118d)"><g clip-path="url(#2ba84f3361)"><path stroke-linecap="butt" transform="matrix(0.75, 0, 0, 0.75, 12.809477, 12.693315)" fill="none" stroke-linejoin="miter" d="M 171.00925 -0.00254551 C 76.561327 -0.00254551 -0.00117766 76.565168 -0.00117766 171.007882 C -0.00117766 265.450597 76.561327 342.013102 171.00925 342.013102 C 265.451965 342.013102 342.01447 265.450597 342.01447 171.007882 C 342.01447 76.565168 265.451965 -0.00254551 171.00925 -0.00254551 Z M 171.00925 -0.00254551 " stroke="#ffa5c5" stroke-width="8" stroke-opacity="1" stroke-miterlimit="4"/></g></g></g></g></g><g mask="url(#effcd8815c)"><g transform="matrix(1, 0, 0, 1, 208, 93)"><g clip-path="url(#6d84233f13)"><g clip-path="url(#298c511bf1)"><path fill="#ff9db7" d="M 70.640625 2.074219 C 69.34375 2.761719 68.082031 3.566406 66.863281 4.488281 C 65.640625 5.40625 64.472656 6.4375 63.347656 7.574219 C 62.226562 8.714844 61.164062 9.949219 60.164062 11.285156 C 59.160156 12.617188 58.222656 14.039062 57.359375 15.546875 C 56.492188 17.054688 55.699219 18.636719 54.988281 20.292969 C 54.273438 21.945312 53.640625 23.660156 53.089844 25.429688 C 52.539062 27.203125 52.078125 29.015625 51.699219 30.875 C 51.324219 32.730469 51.039062 34.613281 50.84375 36.523438 L 79.097656 75.410156 L 79.097656 59.996094 L 84.304688 59.996094 L 84.304688 75.417969 L 112.574219 36.503906 C 112.375 34.59375 112.089844 32.710938 111.710938 30.855469 C 111.332031 28.996094 110.867188 27.183594 110.3125 25.414062 C 109.761719 23.644531 109.128906 21.933594 108.410156 20.28125 C 107.695312 18.625 106.902344 17.046875 106.03125 15.542969 C 105.164062 14.035156 104.226562 12.617188 103.222656 11.285156 C 102.21875 9.953125 101.152344 8.71875 100.03125 7.582031 C 98.90625 6.449219 97.734375 5.421875 96.511719 4.503906 C 95.292969 3.585938 94.03125 2.785156 92.730469 2.101562 L 81.703125 13.128906 Z M 33.972656 38.289062 C 31.320312 38.328125 28.75 38.5625 26.253906 39 C 23.761719 39.433594 21.390625 40.058594 19.148438 40.875 C 16.902344 41.691406 14.820312 42.679688 12.90625 43.84375 C 10.992188 45.011719 9.277344 46.332031 7.765625 47.804688 L 14.84375 61.703125 L 0.914062 68.804688 C 1.164062 70.25 1.539062 71.695312 2.039062 73.140625 C 2.539062 74.589844 3.15625 76.019531 3.890625 77.4375 C 4.625 78.859375 5.472656 80.25 6.433594 81.617188 C 7.390625 82.984375 8.453125 84.3125 9.621094 85.601562 C 10.785156 86.890625 12.046875 88.132812 13.398438 89.324219 C 14.75 90.515625 16.183594 91.644531 17.699219 92.71875 C 19.214844 93.789062 20.796875 94.789062 22.449219 95.71875 C 24.097656 96.652344 25.800781 97.507812 27.558594 98.28125 L 73.269531 83.425781 L 58.609375 78.660156 L 60.21875 73.707031 L 74.882812 78.476562 L 46.613281 39.5625 C 42.359375 38.648438 38.144531 38.226562 33.972656 38.285156 Z M 127.980469 38.296875 C 124.261719 38.347656 120.527344 38.777344 116.765625 39.589844 L 88.515625 78.476562 L 103.179688 73.710938 L 104.785156 78.660156 L 90.125 83.429688 L 135.863281 98.289062 C 139.929688 96.488281 143.664062 94.304688 147.0625 91.734375 C 149.15625 90.148438 151.070312 88.453125 152.804688 86.644531 C 154.542969 84.835938 156.070312 82.953125 157.386719 80.988281 C 158.703125 79.023438 159.789062 77.015625 160.640625 74.964844 C 161.492188 72.914062 162.09375 70.855469 162.449219 68.792969 L 148.546875 61.710938 L 155.652344 47.769531 C 154.0625 46.234375 152.257812 44.863281 150.238281 43.664062 C 148.214844 42.464844 146.015625 41.460938 143.636719 40.644531 C 141.261719 39.832031 138.753906 39.226562 136.121094 38.832031 C 133.484375 38.4375 130.769531 38.257812 127.980469 38.296875 Z M 88.507812 88.371094 L 97.574219 100.851562 L 93.363281 103.914062 L 84.300781 91.4375 L 84.300781 139.53125 C 85.582031 140.960938 86.921875 142.316406 88.320312 143.59375 C 89.714844 144.875 91.160156 146.070312 92.644531 147.175781 C 94.132812 148.285156 95.652344 149.292969 97.203125 150.210938 C 98.753906 151.125 100.324219 151.9375 101.910156 152.644531 C 103.5 153.351562 105.089844 153.949219 106.6875 154.4375 C 108.28125 154.925781 109.867188 155.296875 111.445312 155.554688 C 113.019531 155.816406 114.570312 155.957031 116.101562 155.980469 C 117.628906 156.003906 119.117188 155.914062 120.570312 155.703125 L 123.011719 140.296875 L 138.460938 142.738281 C 139.105469 141.421875 139.652344 140.03125 140.097656 138.566406 C 140.542969 137.105469 140.886719 135.582031 141.125 134.003906 C 141.363281 132.421875 141.496094 130.796875 141.523438 129.128906 C 141.550781 127.460938 141.472656 125.761719 141.285156 124.03125 C 141.101562 122.300781 140.8125 120.558594 140.417969 118.800781 C 140.023438 117.039062 139.527344 115.28125 138.929688 113.527344 C 138.335938 111.769531 137.644531 110.03125 136.855469 108.304688 C 136.066406 106.582031 135.191406 104.890625 134.226562 103.230469 Z M 74.878906 88.378906 L 29.132812 103.246094 C 28.171875 104.90625 27.296875 106.597656 26.511719 108.320312 C 25.726562 110.046875 25.039062 111.785156 24.445312 113.542969 C 23.851562 115.300781 23.359375 117.054688 22.96875 118.8125 C 22.578125 120.570312 22.292969 122.316406 22.109375 124.042969 C 21.925781 125.769531 21.851562 127.46875 21.882812 129.136719 C 21.910156 130.804688 22.046875 132.429688 22.289062 134.007812 C 22.53125 135.585938 22.875 137.105469 23.324219 138.5625 C 23.773438 140.023438 24.320312 141.414062 24.96875 142.730469 L 40.378906 140.292969 L 42.828125 155.742188 C 45.015625 156.054688 47.277344 156.105469 49.617188 155.890625 C 51.957031 155.675781 54.328125 155.199219 56.726562 154.464844 C 59.128906 153.730469 61.511719 152.75 63.878906 151.523438 C 66.242188 150.296875 68.542969 148.847656 70.78125 147.179688 C 73.757812 144.941406 76.53125 142.382812 79.09375 139.503906 L 79.097656 91.433594 L 70.03125 103.910156 L 65.820312 100.851562 Z M 74.878906 88.378906 " fill-opacity="1" fill-rule="nonzero"/></g><path fill="#ffffff" d="M 81.910156 54.792969 C 81.34375 54.769531 80.785156 54.835938 80.238281 54.996094 C 79.691406 55.152344 79.183594 55.394531 78.71875 55.71875 C 78.25 56.042969 77.847656 56.433594 77.507812 56.890625 C 77.167969 57.347656 76.910156 57.847656 76.734375 58.386719 C 76.628906 58.710938 76.554688 59.042969 76.515625 59.382812 C 76.476562 59.722656 76.46875 60.0625 76.496094 60.402344 C 76.523438 60.746094 76.582031 61.078125 76.675781 61.410156 C 76.765625 61.738281 76.890625 62.054688 77.046875 62.359375 C 77.203125 62.664062 77.386719 62.949219 77.597656 63.21875 C 77.808594 63.488281 78.042969 63.734375 78.304688 63.953125 C 78.5625 64.175781 78.84375 64.371094 79.140625 64.539062 C 79.4375 64.707031 79.75 64.84375 80.074219 64.949219 C 80.402344 65.054688 80.734375 65.125 81.074219 65.167969 C 81.414062 65.207031 81.753906 65.214844 82.09375 65.1875 C 82.433594 65.160156 82.769531 65.101562 83.097656 65.007812 C 83.425781 64.914062 83.742188 64.792969 84.046875 64.636719 C 84.351562 64.480469 84.640625 64.296875 84.910156 64.085938 C 85.175781 63.875 85.421875 63.636719 85.644531 63.378906 C 85.867188 63.117188 86.0625 62.839844 86.226562 62.542969 C 86.394531 62.242188 86.53125 61.929688 86.636719 61.605469 C 86.742188 61.28125 86.816406 60.949219 86.855469 60.609375 C 86.894531 60.269531 86.902344 59.929688 86.875 59.589844 C 86.847656 59.25 86.789062 58.914062 86.695312 58.585938 C 86.605469 58.253906 86.480469 57.9375 86.324219 57.632812 C 86.167969 57.328125 85.988281 57.042969 85.773438 56.773438 C 85.5625 56.503906 85.328125 56.261719 85.066406 56.039062 C 84.808594 55.816406 84.527344 55.621094 84.230469 55.453125 C 83.933594 55.289062 83.621094 55.152344 83.296875 55.046875 C 82.84375 54.898438 82.382812 54.816406 81.910156 54.792969 Z M 103.898438 70.980469 C 103.371094 70.988281 102.859375 71.070312 102.359375 71.234375 C 102.035156 71.339844 101.722656 71.476562 101.425781 71.644531 C 101.128906 71.8125 100.847656 72.003906 100.589844 72.226562 C 100.328125 72.449219 100.09375 72.695312 99.882812 72.964844 C 99.671875 73.230469 99.488281 73.519531 99.332031 73.824219 C 99.175781 74.128906 99.050781 74.445312 98.960938 74.773438 C 98.867188 75.101562 98.808594 75.4375 98.78125 75.777344 C 98.753906 76.117188 98.761719 76.460938 98.800781 76.796875 C 98.839844 77.136719 98.914062 77.46875 99.019531 77.796875 C 99.125 78.121094 99.261719 78.433594 99.429688 78.730469 C 99.597656 79.027344 99.789062 79.308594 100.011719 79.566406 C 100.234375 79.828125 100.480469 80.0625 100.75 80.273438 C 101.015625 80.488281 101.304688 80.667969 101.609375 80.824219 C 101.914062 80.980469 102.230469 81.105469 102.558594 81.195312 C 102.886719 81.289062 103.222656 81.347656 103.5625 81.375 C 103.902344 81.402344 104.246094 81.394531 104.582031 81.355469 C 104.921875 81.316406 105.253906 81.242188 105.582031 81.136719 C 105.90625 81.03125 106.21875 80.894531 106.515625 80.726562 C 106.8125 80.5625 107.09375 80.367188 107.351562 80.144531 C 107.613281 79.921875 107.847656 79.675781 108.058594 79.410156 C 108.273438 79.140625 108.453125 78.851562 108.609375 78.546875 C 108.765625 78.242188 108.890625 77.925781 108.980469 77.597656 C 109.074219 77.269531 109.132812 76.933594 109.160156 76.59375 C 109.1875 76.253906 109.179688 75.914062 109.140625 75.574219 C 109.101562 75.234375 109.027344 74.902344 108.921875 74.574219 C 108.75 74.046875 108.5 73.558594 108.171875 73.109375 C 107.84375 72.660156 107.453125 72.277344 107 71.953125 C 106.550781 71.628906 106.058594 71.382812 105.527344 71.21875 C 104.996094 71.050781 104.453125 70.972656 103.898438 70.980469 Z M 59.179688 70.984375 C 58.386719 71.015625 57.640625 71.222656 56.941406 71.597656 C 56.238281 71.972656 55.65625 72.484375 55.1875 73.128906 C 54.988281 73.402344 54.816406 73.699219 54.671875 74.007812 C 54.53125 74.320312 54.417969 74.640625 54.339844 74.972656 C 54.257812 75.304688 54.214844 75.640625 54.199219 75.984375 C 54.1875 76.324219 54.207031 76.664062 54.261719 77 C 54.3125 77.339844 54.398438 77.667969 54.519531 77.988281 C 54.636719 78.308594 54.785156 78.613281 54.964844 78.90625 C 55.140625 79.199219 55.347656 79.46875 55.578125 79.71875 C 55.8125 79.972656 56.066406 80.195312 56.34375 80.398438 C 56.617188 80.597656 56.910156 80.769531 57.222656 80.914062 C 57.53125 81.058594 57.855469 81.167969 58.1875 81.25 C 58.519531 81.328125 58.855469 81.375 59.199219 81.390625 C 59.539062 81.402344 59.878906 81.382812 60.21875 81.328125 C 60.554688 81.277344 60.882812 81.191406 61.203125 81.070312 C 61.527344 80.953125 61.832031 80.804688 62.125 80.625 C 62.414062 80.449219 62.6875 80.242188 62.9375 80.011719 C 63.1875 79.777344 63.414062 79.523438 63.617188 79.246094 C 63.816406 78.972656 63.988281 78.675781 64.132812 78.367188 C 64.273438 78.054688 64.386719 77.734375 64.464844 77.402344 C 64.546875 77.070312 64.59375 76.734375 64.605469 76.390625 C 64.621094 76.050781 64.597656 75.710938 64.546875 75.371094 C 64.492188 75.035156 64.40625 74.703125 64.289062 74.382812 C 64.167969 74.0625 64.019531 73.757812 63.84375 73.464844 C 63.664062 73.175781 63.457031 72.902344 63.226562 72.652344 C 62.992188 72.402344 62.738281 72.175781 62.460938 71.972656 C 61.484375 71.261719 60.390625 70.933594 59.179688 70.984375 Z M 67.769531 97.175781 C 66.695312 97.207031 65.722656 97.539062 64.855469 98.171875 C 64.578125 98.371094 64.324219 98.597656 64.089844 98.847656 C 63.859375 99.101562 63.652344 99.371094 63.472656 99.664062 C 63.296875 99.953125 63.148438 100.261719 63.027344 100.582031 C 62.910156 100.902344 62.824219 101.230469 62.769531 101.570312 C 62.71875 101.90625 62.695312 102.246094 62.710938 102.585938 C 62.722656 102.929688 62.769531 103.265625 62.851562 103.597656 C 62.929688 103.929688 63.042969 104.253906 63.183594 104.5625 C 63.328125 104.875 63.5 105.167969 63.699219 105.445312 C 63.902344 105.722656 64.128906 105.976562 64.378906 106.207031 C 64.628906 106.4375 64.902344 106.644531 65.191406 106.824219 C 65.484375 107 65.789062 107.148438 66.109375 107.269531 C 66.433594 107.386719 66.761719 107.472656 67.097656 107.527344 C 67.4375 107.578125 67.777344 107.597656 68.117188 107.585938 C 68.460938 107.574219 68.796875 107.527344 69.128906 107.445312 C 69.460938 107.367188 69.78125 107.253906 70.09375 107.109375 C 70.402344 106.96875 70.699219 106.796875 70.972656 106.59375 C 71.25 106.394531 71.503906 106.167969 71.738281 105.917969 C 71.96875 105.664062 72.175781 105.394531 72.355469 105.101562 C 72.53125 104.8125 72.679688 104.503906 72.800781 104.183594 C 72.917969 103.863281 73.003906 103.535156 73.058594 103.195312 C 73.109375 102.859375 73.132812 102.519531 73.117188 102.175781 C 73.105469 101.835938 73.058594 101.5 72.976562 101.167969 C 72.898438 100.832031 72.785156 100.511719 72.644531 100.203125 C 72.5 99.890625 72.328125 99.597656 72.128906 99.320312 C 71.621094 98.625 70.984375 98.089844 70.214844 97.710938 C 69.441406 97.332031 68.628906 97.152344 67.769531 97.175781 Z M 95.386719 97.175781 C 94.859375 97.183594 94.347656 97.269531 93.847656 97.429688 C 93.523438 97.535156 93.210938 97.671875 92.914062 97.839844 C 92.617188 98.007812 92.335938 98.203125 92.078125 98.425781 C 91.816406 98.644531 91.582031 98.890625 91.371094 99.160156 C 91.15625 99.429688 90.976562 99.714844 90.820312 100.019531 C 90.664062 100.324219 90.539062 100.640625 90.449219 100.96875 C 90.355469 101.300781 90.296875 101.632812 90.269531 101.976562 C 90.242188 102.316406 90.25 102.65625 90.289062 102.996094 C 90.328125 103.335938 90.402344 103.667969 90.507812 103.992188 C 90.613281 104.316406 90.75 104.628906 90.917969 104.925781 C 91.082031 105.226562 91.277344 105.503906 91.5 105.765625 C 91.722656 106.023438 91.96875 106.261719 92.238281 106.472656 C 92.503906 106.683594 92.792969 106.867188 93.097656 107.023438 C 93.402344 107.175781 93.71875 107.300781 94.046875 107.394531 C 94.375 107.488281 94.710938 107.546875 95.050781 107.574219 C 95.390625 107.601562 95.730469 107.59375 96.070312 107.554688 C 96.410156 107.511719 96.742188 107.441406 97.070312 107.335938 C 97.394531 107.226562 97.707031 107.09375 98.003906 106.925781 C 98.300781 106.757812 98.582031 106.5625 98.839844 106.339844 C 99.101562 106.117188 99.335938 105.875 99.546875 105.605469 C 99.757812 105.335938 99.941406 105.050781 100.097656 104.746094 C 100.253906 104.441406 100.378906 104.125 100.46875 103.796875 C 100.5625 103.464844 100.621094 103.132812 100.648438 102.789062 C 100.675781 102.449219 100.667969 102.109375 100.628906 101.769531 C 100.589844 101.429688 100.515625 101.097656 100.410156 100.773438 C 100.238281 100.246094 99.988281 99.753906 99.660156 99.308594 C 99.332031 98.859375 98.941406 98.472656 98.488281 98.148438 C 98.035156 97.824219 97.546875 97.582031 97.015625 97.414062 C 96.484375 97.25 95.941406 97.167969 95.386719 97.175781 Z M 95.386719 97.175781 " fill-opacity="1" fill-rule="nonzero"/></g></g></g><g mask="url(#aa53fe8068)"><g transform="matrix(1, 0, 0, 1, 43, 212)"><g clip-path="url(#69f7e45a15)"><g clip-path="url(#4759801f90)"><path fill="#f78fab" d="M 45.550781 1.539062 C 44.722656 1.976562 43.925781 2.488281 43.148438 3.070312 C 42.375 3.65625 41.628906 4.3125 40.917969 5.035156 C 40.203125 5.757812 39.527344 6.542969 38.890625 7.390625 C 38.253906 8.238281 37.660156 9.140625 37.109375 10.101562 C 36.558594 11.058594 36.058594 12.0625 35.601562 13.113281 C 35.148438 14.164062 34.746094 15.253906 34.398438 16.378906 C 34.046875 17.503906 33.753906 18.65625 33.515625 19.835938 C 33.277344 21.015625 33.09375 22.214844 32.972656 23.425781 L 50.921875 48.132812 L 50.921875 38.339844 L 54.230469 38.339844 L 54.230469 48.136719 L 72.191406 23.414062 C 72.066406 22.199219 71.882812 21.003906 71.644531 19.824219 C 71.402344 18.644531 71.105469 17.492188 70.757812 16.367188 C 70.40625 15.242188 70 14.15625 69.546875 13.105469 C 69.089844 12.054688 68.585938 11.050781 68.035156 10.097656 C 67.484375 9.140625 66.886719 8.238281 66.25 7.390625 C 65.613281 6.542969 64.9375 5.761719 64.222656 5.039062 C 63.507812 4.316406 62.761719 3.664062 61.988281 3.082031 C 61.210938 2.5 60.410156 1.992188 59.585938 1.554688 L 52.578125 8.5625 Z M 22.25 24.546875 C 20.566406 24.574219 18.933594 24.722656 17.347656 25 C 15.765625 25.277344 14.257812 25.671875 12.832031 26.191406 C 11.40625 26.707031 10.085938 27.339844 8.867188 28.078125 C 7.652344 28.820312 6.5625 29.65625 5.601562 30.59375 L 10.101562 39.421875 L 1.246094 43.9375 C 1.410156 44.855469 1.648438 45.773438 1.964844 46.691406 C 2.28125 47.609375 2.671875 48.519531 3.140625 49.421875 C 3.605469 50.324219 4.144531 51.207031 4.753906 52.078125 C 5.363281 52.945312 6.039062 53.789062 6.78125 54.609375 C 7.519531 55.429688 8.320312 56.214844 9.179688 56.972656 C 10.039062 57.730469 10.949219 58.449219 11.914062 59.128906 C 12.875 59.808594 13.882812 60.445312 14.929688 61.039062 C 15.976562 61.628906 17.0625 62.171875 18.175781 62.664062 L 47.21875 53.226562 L 37.90625 50.199219 L 38.925781 47.050781 L 48.246094 50.082031 L 30.28125 25.355469 C 27.582031 24.777344 24.902344 24.507812 22.25 24.546875 Z M 81.980469 24.550781 C 79.617188 24.585938 77.242188 24.859375 74.855469 25.375 L 56.90625 50.082031 L 66.222656 47.050781 L 67.242188 50.199219 L 57.929688 53.226562 L 86.988281 62.667969 C 89.574219 61.527344 91.945312 60.136719 94.105469 58.503906 C 95.433594 57.496094 96.648438 56.417969 97.753906 55.269531 C 98.855469 54.121094 99.824219 52.925781 100.664062 51.675781 C 101.5 50.429688 102.1875 49.152344 102.730469 47.851562 C 103.269531 46.546875 103.65625 45.238281 103.878906 43.929688 L 95.046875 39.429688 L 99.558594 30.574219 C 98.550781 29.59375 97.40625 28.726562 96.121094 27.964844 C 94.835938 27.203125 93.4375 26.5625 91.929688 26.046875 C 90.417969 25.527344 88.824219 25.144531 87.152344 24.894531 C 85.476562 24.640625 83.753906 24.527344 81.980469 24.550781 Z M 56.902344 56.367188 L 62.660156 64.296875 L 59.988281 66.242188 L 54.226562 58.316406 L 54.226562 88.875 C 55.042969 89.78125 55.894531 90.640625 56.78125 91.453125 C 57.667969 92.265625 58.585938 93.027344 59.53125 93.730469 C 60.476562 94.433594 61.441406 95.074219 62.425781 95.65625 C 63.410156 96.238281 64.410156 96.753906 65.417969 97.203125 C 66.425781 97.652344 67.4375 98.035156 68.449219 98.34375 C 69.464844 98.652344 70.472656 98.890625 71.472656 99.054688 C 72.476562 99.21875 73.460938 99.308594 74.433594 99.324219 C 75.402344 99.339844 76.347656 99.28125 77.273438 99.148438 L 78.824219 89.359375 L 88.636719 90.910156 C 89.046875 90.074219 89.394531 89.1875 89.679688 88.261719 C 89.960938 87.332031 90.179688 86.363281 90.332031 85.359375 C 90.484375 84.355469 90.566406 83.324219 90.585938 82.261719 C 90.601562 81.203125 90.550781 80.121094 90.433594 79.023438 C 90.316406 77.925781 90.132812 76.816406 89.882812 75.699219 C 89.632812 74.582031 89.316406 73.464844 88.9375 72.351562 C 88.558594 71.234375 88.117188 70.128906 87.617188 69.035156 C 87.117188 67.9375 86.5625 66.863281 85.949219 65.808594 Z M 48.242188 56.375 L 19.175781 65.816406 C 18.566406 66.875 18.011719 67.949219 17.511719 69.042969 C 17.015625 70.140625 16.578125 71.246094 16.199219 72.359375 C 15.824219 73.476562 15.511719 74.59375 15.261719 75.710938 C 15.011719 76.828125 14.832031 77.933594 14.714844 79.03125 C 14.597656 80.128906 14.550781 81.207031 14.570312 82.269531 C 14.589844 83.328125 14.675781 84.359375 14.828125 85.363281 C 14.980469 86.363281 15.203125 87.328125 15.488281 88.257812 C 15.773438 89.1875 16.121094 90.066406 16.53125 90.90625 L 26.320312 89.355469 L 27.878906 99.171875 C 29.265625 99.371094 30.707031 99.402344 32.191406 99.265625 C 33.679688 99.128906 35.183594 98.828125 36.710938 98.359375 C 38.234375 97.894531 39.75 97.269531 41.253906 96.492188 C 42.753906 95.710938 44.21875 94.792969 45.636719 93.734375 C 47.53125 92.308594 49.292969 90.683594 50.917969 88.855469 L 50.921875 58.3125 L 45.164062 66.242188 L 42.484375 64.296875 Z M 48.242188 56.375 " fill-opacity="1" fill-rule="nonzero"/></g><path fill="#ffffff" d="M 52.710938 35.035156 C 52.347656 35.019531 51.996094 35.0625 51.648438 35.164062 C 51.300781 35.261719 50.976562 35.417969 50.679688 35.621094 C 50.382812 35.828125 50.128906 36.078125 49.910156 36.367188 C 49.695312 36.65625 49.53125 36.972656 49.421875 37.316406 C 49.285156 37.734375 49.234375 38.160156 49.269531 38.597656 C 49.304688 39.035156 49.421875 39.449219 49.621094 39.839844 C 49.820312 40.230469 50.085938 40.570312 50.417969 40.855469 C 50.75 41.140625 51.125 41.351562 51.542969 41.484375 C 51.960938 41.621094 52.386719 41.671875 52.824219 41.636719 C 53.261719 41.605469 53.675781 41.488281 54.066406 41.289062 C 54.457031 41.089844 54.796875 40.824219 55.082031 40.488281 C 55.367188 40.15625 55.578125 39.78125 55.710938 39.363281 C 55.847656 38.945312 55.898438 38.519531 55.863281 38.082031 C 55.828125 37.644531 55.714844 37.230469 55.515625 36.839844 C 55.316406 36.449219 55.050781 36.109375 54.714844 35.824219 C 54.382812 35.539062 54.007812 35.332031 53.589844 35.195312 C 53.304688 35.101562 53.011719 35.046875 52.710938 35.035156 Z M 66.679688 45.320312 C 66.347656 45.324219 66.019531 45.378906 65.703125 45.480469 C 65.285156 45.617188 64.910156 45.824219 64.578125 46.109375 C 64.242188 46.394531 63.976562 46.734375 63.777344 47.125 C 63.578125 47.515625 63.460938 47.929688 63.429688 48.367188 C 63.394531 48.804688 63.445312 49.230469 63.578125 49.648438 C 63.714844 50.066406 63.925781 50.441406 64.210938 50.773438 C 64.496094 51.109375 64.832031 51.375 65.222656 51.574219 C 65.617188 51.773438 66.03125 51.890625 66.464844 51.921875 C 66.902344 51.957031 67.332031 51.90625 67.75 51.773438 C 68.164062 51.636719 68.539062 51.425781 68.875 51.140625 C 69.207031 50.855469 69.472656 50.519531 69.671875 50.128906 C 69.871094 49.734375 69.988281 49.320312 70.023438 48.886719 C 70.058594 48.449219 70.007812 48.019531 69.871094 47.601562 C 69.761719 47.265625 69.601562 46.957031 69.394531 46.671875 C 69.1875 46.386719 68.9375 46.140625 68.652344 45.9375 C 68.363281 45.730469 68.050781 45.574219 67.714844 45.46875 C 67.378906 45.363281 67.03125 45.3125 66.679688 45.320312 Z M 38.269531 45.320312 C 37.765625 45.34375 37.289062 45.472656 36.84375 45.710938 C 36.398438 45.949219 36.027344 46.273438 35.730469 46.683594 C 35.472656 47.039062 35.292969 47.429688 35.191406 47.855469 C 35.089844 48.28125 35.074219 48.710938 35.140625 49.144531 C 35.210938 49.578125 35.359375 49.980469 35.589844 50.355469 C 35.816406 50.726562 36.109375 51.042969 36.464844 51.300781 C 36.820312 51.558594 37.210938 51.738281 37.636719 51.84375 C 38.0625 51.945312 38.492188 51.960938 38.925781 51.894531 C 39.359375 51.824219 39.765625 51.675781 40.136719 51.449219 C 40.511719 51.21875 40.828125 50.925781 41.085938 50.570312 C 41.34375 50.214844 41.523438 49.824219 41.625 49.398438 C 41.730469 48.972656 41.746094 48.542969 41.675781 48.109375 C 41.609375 47.675781 41.460938 47.273438 41.230469 46.898438 C 41 46.523438 40.707031 46.207031 40.351562 45.949219 C 39.730469 45.5 39.035156 45.289062 38.269531 45.320312 Z M 43.722656 61.960938 C 43.042969 61.980469 42.425781 62.191406 41.871094 62.59375 C 41.519531 62.851562 41.226562 63.167969 40.996094 63.542969 C 40.765625 63.914062 40.617188 64.320312 40.550781 64.753906 C 40.480469 65.1875 40.496094 65.617188 40.597656 66.042969 C 40.703125 66.46875 40.882812 66.859375 41.140625 67.214844 C 41.398438 67.570312 41.714844 67.863281 42.089844 68.089844 C 42.460938 68.320312 42.867188 68.46875 43.300781 68.539062 C 43.734375 68.605469 44.164062 68.589844 44.589844 68.488281 C 45.015625 68.382812 45.40625 68.203125 45.761719 67.945312 C 46.117188 67.6875 46.410156 67.371094 46.636719 67 C 46.867188 66.625 47.015625 66.21875 47.085938 65.789062 C 47.152344 65.355469 47.136719 64.925781 47.035156 64.496094 C 46.933594 64.070312 46.75 63.679688 46.492188 63.324219 C 46.171875 62.882812 45.769531 62.542969 45.277344 62.300781 C 44.789062 62.058594 44.269531 61.945312 43.722656 61.960938 Z M 61.269531 61.960938 C 60.9375 61.96875 60.613281 62.019531 60.292969 62.125 C 59.878906 62.261719 59.503906 62.46875 59.167969 62.753906 C 58.835938 63.039062 58.570312 63.378906 58.371094 63.769531 C 58.171875 64.160156 58.054688 64.574219 58.019531 65.011719 C 57.984375 65.449219 58.035156 65.875 58.171875 66.292969 C 58.308594 66.710938 58.519531 67.085938 58.800781 67.417969 C 59.085938 67.753906 59.425781 68.019531 59.816406 68.21875 C 60.207031 68.417969 60.621094 68.535156 61.058594 68.566406 C 61.496094 68.601562 61.921875 68.550781 62.339844 68.414062 C 62.757812 68.28125 63.132812 68.070312 63.464844 67.785156 C 63.800781 67.5 64.066406 67.164062 64.265625 66.769531 C 64.464844 66.378906 64.582031 65.964844 64.613281 65.527344 C 64.648438 65.089844 64.597656 64.664062 64.464844 64.246094 C 64.355469 63.910156 64.195312 63.601562 63.988281 63.316406 C 63.777344 63.03125 63.53125 62.785156 63.242188 62.582031 C 62.957031 62.375 62.644531 62.21875 62.304688 62.113281 C 61.96875 62.007812 61.625 61.957031 61.269531 61.960938 Z M 61.269531 61.960938 " fill-opacity="1" fill-rule="nonzero"/></g></g></g><g mask="url(#c8cc791318)"><g transform="matrix(1, 0, 0, 1, 146, 28)"><g clip-path="url(#b0cd16a2dc)"><g clip-path="url(#1d62f3aad0)"><path fill="#fb9aae" d="M 25.335938 0.691406 C 24.425781 1.171875 23.582031 1.808594 22.800781 2.605469 C 22.015625 3.398438 21.320312 4.324219 20.714844 5.378906 C 20.109375 6.429688 19.617188 7.578125 19.230469 8.816406 C 18.847656 10.050781 18.585938 11.339844 18.449219 12.671875 L 28.273438 26.195312 L 28.273438 20.835938 L 30.085938 20.835938 L 30.085938 26.199219 L 39.917969 12.664062 C 39.777344 11.332031 39.515625 10.046875 39.128906 8.808594 C 38.746094 7.570312 38.25 6.425781 37.640625 5.375 C 37.035156 4.324219 36.339844 3.402344 35.554688 2.609375 C 34.769531 1.816406 33.925781 1.179688 33.015625 0.703125 L 29.179688 4.539062 Z M 12.582031 13.285156 C 10.722656 13.3125 9.003906 13.613281 7.425781 14.183594 C 5.851562 14.757812 4.53125 15.558594 3.46875 16.59375 L 5.933594 21.429688 L 1.085938 23.898438 C 1.261719 24.910156 1.609375 25.910156 2.121094 26.898438 C 2.636719 27.890625 3.300781 28.835938 4.113281 29.738281 C 4.929688 30.640625 5.867188 31.464844 6.925781 32.214844 C 7.984375 32.960938 9.125 33.605469 10.351562 34.148438 L 26.25 28.984375 L 21.148438 27.324219 L 21.710938 25.601562 L 26.808594 27.261719 L 16.980469 13.730469 C 15.5 13.410156 14.035156 13.265625 12.582031 13.285156 Z M 45.273438 13.289062 C 43.980469 13.304688 42.683594 13.457031 41.375 13.738281 L 31.550781 27.261719 L 36.648438 25.601562 L 37.207031 27.324219 L 32.109375 28.984375 L 48.015625 34.152344 C 49.429688 33.523438 50.726562 32.765625 51.910156 31.871094 C 53.378906 30.757812 54.574219 29.511719 55.5 28.132812 C 56.425781 26.753906 57.011719 25.34375 57.261719 23.894531 L 52.425781 21.429688 L 54.894531 16.582031 C 53.78125 15.503906 52.390625 14.675781 50.71875 14.105469 C 49.050781 13.535156 47.234375 13.261719 45.273438 13.289062 Z M 31.546875 30.703125 L 34.699219 35.042969 L 33.238281 36.105469 L 30.085938 31.769531 L 30.085938 48.492188 C 30.980469 49.492188 31.949219 50.378906 32.988281 51.152344 C 34.027344 51.925781 35.101562 52.558594 36.207031 53.054688 C 37.316406 53.546875 38.421875 53.886719 39.523438 54.066406 C 40.625 54.246094 41.683594 54.261719 42.699219 54.117188 L 43.546875 48.757812 L 48.917969 49.609375 C 49.371094 48.6875 49.679688 47.675781 49.84375 46.570312 C 50.011719 45.464844 50.03125 44.3125 49.902344 43.101562 C 49.773438 41.894531 49.5 40.675781 49.082031 39.449219 C 48.664062 38.222656 48.121094 37.027344 47.445312 35.871094 Z M 26.808594 30.707031 L 10.898438 35.875 C 10.226562 37.035156 9.683594 38.226562 9.269531 39.457031 C 8.855469 40.683594 8.585938 41.898438 8.457031 43.105469 C 8.332031 44.3125 8.351562 45.46875 8.519531 46.570312 C 8.6875 47.675781 9 48.683594 9.453125 49.605469 L 14.808594 48.757812 L 15.664062 54.128906 C 17.199219 54.351562 18.808594 54.203125 20.496094 53.6875 C 22.183594 53.167969 23.8125 52.324219 25.382812 51.152344 C 26.417969 50.375 27.382812 49.484375 28.273438 48.484375 L 28.273438 31.765625 L 25.121094 36.105469 L 23.65625 35.042969 L 26.808594 30.703125 Z M 26.808594 30.707031 " fill-opacity="1" fill-rule="nonzero"/></g><path fill="#ffffff" d="M 29.253906 19.027344 C 28.847656 19.007812 28.476562 19.117188 28.144531 19.347656 C 27.808594 19.578125 27.578125 19.886719 27.453125 20.273438 C 27.378906 20.503906 27.351562 20.738281 27.371094 20.976562 C 27.390625 21.214844 27.453125 21.441406 27.5625 21.65625 C 27.671875 21.871094 27.816406 22.054688 28 22.210938 C 28.183594 22.367188 28.386719 22.484375 28.617188 22.558594 C 28.84375 22.632812 29.078125 22.660156 29.316406 22.640625 C 29.554688 22.621094 29.78125 22.558594 29.996094 22.449219 C 30.210938 22.339844 30.394531 22.195312 30.550781 22.011719 C 30.707031 21.828125 30.824219 21.621094 30.898438 21.394531 C 30.972656 21.167969 31 20.933594 30.980469 20.691406 C 30.960938 20.453125 30.898438 20.226562 30.789062 20.011719 C 30.679688 19.800781 30.535156 19.613281 30.351562 19.457031 C 30.167969 19.300781 29.964844 19.1875 29.734375 19.113281 C 29.578125 19.0625 29.417969 19.03125 29.253906 19.027344 Z M 36.898438 24.65625 C 36.71875 24.65625 36.539062 24.6875 36.363281 24.742188 C 36.136719 24.816406 35.929688 24.933594 35.75 25.089844 C 35.566406 25.242188 35.421875 25.429688 35.3125 25.644531 C 35.203125 25.855469 35.140625 26.082031 35.121094 26.324219 C 35.101562 26.5625 35.128906 26.796875 35.203125 27.023438 C 35.277344 27.253906 35.390625 27.457031 35.546875 27.640625 C 35.703125 27.824219 35.890625 27.96875 36.101562 28.078125 C 36.316406 28.1875 36.542969 28.25 36.785156 28.269531 C 37.023438 28.289062 37.257812 28.261719 37.484375 28.1875 C 37.714844 28.113281 37.917969 27.996094 38.101562 27.839844 C 38.285156 27.683594 38.429688 27.5 38.539062 27.285156 C 38.648438 27.074219 38.710938 26.84375 38.730469 26.605469 C 38.75 26.367188 38.722656 26.132812 38.648438 25.90625 C 38.523438 25.527344 38.300781 25.222656 37.980469 24.992188 C 37.65625 24.761719 37.296875 24.648438 36.898438 24.65625 Z M 21.347656 24.65625 C 20.765625 24.679688 20.304688 24.929688 19.960938 25.402344 C 19.820312 25.59375 19.722656 25.808594 19.664062 26.042969 C 19.609375 26.277344 19.601562 26.511719 19.636719 26.75 C 19.675781 26.984375 19.757812 27.207031 19.882812 27.410156 C 20.007812 27.617188 20.167969 27.789062 20.363281 27.929688 C 20.554688 28.070312 20.769531 28.167969 21.003906 28.226562 C 21.238281 28.28125 21.472656 28.289062 21.710938 28.253906 C 21.945312 28.214844 22.167969 28.132812 22.371094 28.007812 C 22.578125 27.882812 22.75 27.722656 22.890625 27.53125 C 23.03125 27.335938 23.132812 27.121094 23.1875 26.886719 C 23.242188 26.652344 23.253906 26.417969 23.214844 26.179688 C 23.175781 25.945312 23.09375 25.722656 22.96875 25.519531 C 22.84375 25.3125 22.683594 25.140625 22.492188 25 C 22.148438 24.753906 21.769531 24.636719 21.347656 24.65625 Z M 24.335938 33.765625 C 23.960938 33.773438 23.625 33.890625 23.320312 34.109375 C 23.128906 34.25 22.96875 34.425781 22.84375 34.628906 C 22.71875 34.832031 22.636719 35.054688 22.597656 35.292969 C 22.558594 35.527344 22.570312 35.765625 22.625 35.996094 C 22.679688 36.230469 22.78125 36.445312 22.921875 36.640625 C 23.0625 36.832031 23.234375 36.992188 23.441406 37.117188 C 23.644531 37.242188 23.867188 37.324219 24.101562 37.363281 C 24.339844 37.402344 24.574219 37.390625 24.808594 37.335938 C 25.042969 37.277344 25.257812 37.179688 25.449219 37.039062 C 25.644531 36.898438 25.804688 36.726562 25.929688 36.519531 C 26.054688 36.316406 26.136719 36.09375 26.175781 35.859375 C 26.210938 35.621094 26.203125 35.386719 26.148438 35.152344 C 26.089844 34.917969 25.992188 34.703125 25.851562 34.511719 C 25.476562 33.996094 24.972656 33.746094 24.335938 33.765625 Z M 33.941406 33.765625 C 33.757812 33.765625 33.578125 33.796875 33.40625 33.851562 C 33.175781 33.925781 32.972656 34.042969 32.789062 34.199219 C 32.605469 34.355469 32.460938 34.539062 32.351562 34.753906 C 32.242188 34.964844 32.179688 35.195312 32.160156 35.433594 C 32.140625 35.671875 32.167969 35.90625 32.242188 36.132812 C 32.316406 36.363281 32.433594 36.566406 32.589844 36.75 C 32.746094 36.933594 32.929688 37.078125 33.144531 37.1875 C 33.355469 37.296875 33.582031 37.359375 33.824219 37.378906 C 34.0625 37.398438 34.296875 37.371094 34.523438 37.296875 C 34.753906 37.222656 34.957031 37.105469 35.140625 36.949219 C 35.324219 36.796875 35.46875 36.609375 35.578125 36.394531 C 35.6875 36.183594 35.75 35.957031 35.769531 35.714844 C 35.789062 35.476562 35.761719 35.242188 35.6875 35.015625 C 35.5625 34.636719 35.339844 34.332031 35.019531 34.101562 C 34.695312 33.871094 34.335938 33.757812 33.941406 33.765625 Z M 33.941406 33.765625 " fill-opacity="1" fill-rule="nonzero"/></g></g></g></svg>